<?xml version="1.0" encoding="utf-8"?>
<!-- Generator: Adobe Illustrator 23.0.1, SVG Export Plug-In . SVG Version: 6.00 Build 0)  -->
<svg version="1.1" xmlns="http://www.w3.org/2000/svg" xmlns:xlink="http://www.w3.org/1999/xlink" x="0px" y="0px"
	 viewBox="0 0 192 77.31" style="enable-background:new 0 0 192 77.31;" xml:space="preserve">
<style type="text/css">
	.st0{fill:#F6F8FC;}
	.st1{fill:#2A303B;}
	.st2{fill:#D75699;}
	.st3{fill:#8F5894;}
	.st4{fill:#A75C9F;}
	.st5{fill:#0D0E0F;}
	.st6{fill:#FFFFFF;}
	.st7{fill:#F6F8FC;stroke:#2A303B;stroke-miterlimit:10;}
</style>
<g id="Слой_1">
</g>
<g id="Слой_4">
	<g>
		<path class="st0" d="M18.13,62.98L0,3.47h7.07c4.68,0,8.78,3.15,9.98,7.67l6.55,24.62c1.1,3.79,2.05,7.43,2.85,10.92
			c0.79,3.49,1.71,7.13,2.74,10.92h0.41c1.1-3.79,2.07-7.43,2.9-10.92c0.83-3.48,1.73-7.12,2.69-10.92l6.47-24.6
			c1.19-4.54,5.29-7.7,9.99-7.7h6.53L40.03,62.98c-1.46,4.8-5.89,8.08-10.91,8.08h-0.09C24.02,71.06,19.6,67.78,18.13,62.98z"/>
		<path class="st0" d="M82.91,71.68c-4.35,0-8.4-1.05-12.16-3.16c-3.76-2.1-6.8-5.16-9.11-9.16c-2.31-4-3.47-8.83-3.47-14.49
			c0-5.66,1.15-10.49,3.47-14.49c2.31-4,5.35-7.07,9.11-9.21s7.81-3.21,12.16-3.21c4.27,0,8.29,1.07,12.06,3.21
			c3.76,2.14,6.81,5.21,9.16,9.21c2.34,4,3.52,8.83,3.52,14.49c0,5.66-1.18,10.49-3.52,14.49c-2.35,4.01-5.4,7.06-9.16,9.16
			C91.2,70.62,87.18,71.68,82.91,71.68z M82.91,60.19c2.21,0,4.07-0.62,5.59-1.86c1.52-1.24,2.67-3.02,3.47-5.33
			c0.79-2.31,1.19-5.02,1.19-8.12c0-3.11-0.4-5.81-1.19-8.12c-0.8-2.31-1.95-4.11-3.47-5.38c-1.52-1.28-3.38-1.92-5.59-1.92
			c-2.28,0-4.18,0.64-5.69,1.92c-1.52,1.28-2.66,3.07-3.42,5.38c-0.76,2.31-1.14,5.02-1.14,8.12c0,3.1,0.37,5.81,1.14,8.12
			c0.76,2.31,1.9,4.09,3.42,5.33C78.73,59.57,80.63,60.19,82.91,60.19z"/>
		<path class="st0" d="M131.65,71.68c-3.24,0-5.83-0.71-7.76-2.12c-1.93-1.42-3.31-3.4-4.14-5.94c-0.83-2.54-1.24-5.56-1.24-9.05
			V3.56c0-0.4,0.3-0.72,0.68-0.72h0c7.4,0,13.4,6.32,13.4,14.11v38.27c0,1.6,0.29,2.72,0.88,3.38c0.59,0.65,1.19,0.98,1.81,0.98
			c0.35,0,0.64-0.02,0.88-0.05c0.24-0.04,2.33-0.09,2.75-0.16v11.01c-0.83,0.36-1.83,0.67-3,0.93
			C134.72,71.55,133.31,71.68,131.65,71.68z"/>
		<path class="st0" d="M162.91,71.68c-5.52,0-9.54-1.83-12.06-5.49c-2.52-3.66-3.78-8.69-3.78-15.11V19.2h14.08v30.12
			c0,3.87,0.57,6.54,1.71,8.02c1.14,1.49,2.88,2.23,5.23,2.23c2,0,3.73-0.47,5.18-1.4c1.45-0.93,3-2.5,4.66-4.71V19.2H192v51.24
			h-11.49l-1.03-7.24h-0.42c-2.14,2.55-4.5,4.6-7.09,6.16C169.38,70.9,166.36,71.68,162.91,71.68z"/>
		<path class="st2" d="M176.88,11.9c-1.58,0-2.92-0.58-4.02-1.73c-1.11-1.15-1.66-2.56-1.66-4.23c0-1.71,0.55-3.13,1.66-4.26
			c1.1-1.13,2.44-1.69,4.02-1.69c1.67,0,3.03,0.56,4.09,1.69c1.06,1.13,1.59,2.55,1.59,4.26c0,1.67-0.53,3.08-1.59,4.23
			C179.91,11.33,178.54,11.9,176.88,11.9z"/>
		<path class="st3" d="M162.2,11.9c-1.58,0-2.92-0.58-4.02-1.73c-1.11-1.15-1.66-2.56-1.66-4.23c0-1.71,0.55-3.13,1.66-4.26
			c1.1-1.13,2.44-1.69,4.02-1.69c1.67,0,3.03,0.56,4.09,1.69c1.06,1.13,1.59,2.55,1.59,4.26c0,1.67-0.53,3.08-1.59,4.23
			C165.23,11.33,163.87,11.9,162.2,11.9z"/>
		<g>
			<path class="st3" d="M53.97,50.48c0,5.61-1.12,10.44-3.54,14.49c-0.52,0.86-1.12,1.73-1.73,2.59h-0.26
				c-5.09,0-10.01-1.12-14.32-3.19c0.26-0.09,0.52-0.26,0.69-0.43c1.55-1.29,2.67-3.02,3.45-5.35c0.86-2.33,1.21-5,1.21-8.11v-0.26
				c0-3.02-0.35-5.69-1.21-7.85c-0.78-2.33-1.9-4.14-3.45-5.43c-1.47-1.29-3.36-1.9-5.61-1.9c-2.24,0-4.14,0.6-5.69,1.9
				c-1.47,1.29-2.59,3.11-3.36,5.43c-0.78,2.24-1.12,5-1.12,8.11v0.26c-3.02-5.09-4.74-10.95-4.74-17.34c0-1.72,0.09-3.45,0.43-5.09
				c0.78-0.6,1.55-1.12,2.33-1.55c3.8-2.16,7.85-3.19,12.16-3.19s8.37,1.04,12.08,3.19c0.17,0.09,0.43,0.26,0.6,0.34
				c3.54,2.16,6.38,5.09,8.54,8.88C52.85,39.96,53.97,44.79,53.97,50.48z"/>
			<path class="st4" d="M24.64,64.63c-4.23,2.16-9.06,3.28-14.06,3.28h-0.6c-0.69-0.95-1.38-1.9-1.98-2.93
				c-2.33-4.05-3.45-8.88-3.45-14.49c0-5.69,1.12-10.52,3.45-14.49c1.81-3.19,4.05-5.69,6.73-7.68c-0.35,1.64-0.43,3.36-0.43,5.09
				c0,6.38,1.73,12.25,4.74,17.34c0,3.02,0.34,5.61,1.12,7.85c0.78,2.33,1.9,4.05,3.36,5.35C23.87,64.2,24.3,64.46,24.64,64.63z"/>
			<path class="st3" d="M43.01,35.56c0,5.26-1.29,10.26-3.54,14.66c0-3.02-0.35-5.69-1.21-7.85c-0.78-2.33-1.9-4.14-3.45-5.43
				c-1.47-1.29-3.36-1.9-5.61-1.9c-2.24,0-4.14,0.6-5.69,1.9c-1.47,1.29-2.59,3.11-3.36,5.43c-0.78,2.24-1.12,5-1.12,8.11v0.26
				c-3.02-5.09-4.74-10.95-4.74-17.34c0-1.72,0.09-3.45,0.43-5.09c0.78-0.6,1.55-1.12,2.33-1.55c3.8-2.16,7.85-3.19,12.16-3.19
				s8.37,1.04,12.08,3.19c0.17,0.09,0.43,0.26,0.6,0.34C42.67,29.78,43.01,32.63,43.01,35.56z"/>
			<path class="st2" d="M48.71,67.56c-1.98,2.76-4.48,4.92-7.42,6.56c-3.71,2.07-7.76,3.19-12.08,3.19s-8.37-1.12-12.16-3.19
				c-2.76-1.55-5.09-3.62-7.07-6.21h0.6c5,0,9.83-1.12,14.06-3.28c1.29,0.78,2.85,1.12,4.57,1.12c1.9,0,3.62-0.43,4.92-1.38
				c4.31,2.07,9.23,3.19,14.32,3.19H48.71z"/>
		</g>
	</g>
</g>
<g id="Слой_3">
</g>
<g id="Слой_2">
</g>
</svg>
